<svg version="1.1" id="Warstwa_1" xmlns="http://www.w3.org/2000/svg" xmlns:xlink="http://www.w3.org/1999/xlink" x="0px" y="0px"
	 viewBox="0 0 125 125" enable-background="new 0 0 125 125" xml:space="preserve">
<g>
	<path fill="#59595B" d="M107,125H18c-9.925,0-18-8.075-18-18V18C0,8.075,8.075,0,18,0h89c9.925,0,18,8.075,18,18v89
		C125,116.925,116.925,125,107,125z M18,4C10.28,4,4,10.28,4,18v89c0,7.72,6.28,14,14,14h89c7.72,0,14-6.28,14-14V18
		c0-7.72-6.28-14-14-14H18z"/>
</g>
<g>
	<g>
		<path fill="#59595B" d="M50.816,23.451H23.573v27.241h27.243V23.451z M46.896,46.773h-19.32V27.315h19.32V46.773z M23.568,101.55
			h27.288V74.297H23.568V101.55z M27.569,78.226h19.389v19.393H27.569V78.226z M43.093,62.411h0.054l0-0.058h-0.054V62.411z
			 M35.239,58.553h-7.681v7.804h7.728v3.743h7.806v-7.69h-7.854V58.553z M27.264,58.553v-3.756h-3.662v3.756H27.264z M62.725,42.952
			v0.054h0.057v-0.054H62.725z M58.692,46.988h-3.693v3.728h3.693V46.988z M32.305,92.882h9.927v-9.918h-9.927V92.882z
			 M42.194,32.075h-9.895v9.997h9.895V32.075z M66.649,93.859h-3.864v3.828l3.864,0.001V93.859z M62.785,97.744v-0.056h-0.056
			L62.785,97.744z M62.784,97.744l-0.056-0.056v0.056H62.784z M55.029,101.513h7.699v-3.769h-7.699V101.513z M70.369,35.078v-7
			h-3.72v3.148h-7.683v-3.981h7.683v-3.745H55.006v11.673h3.668v3.949h-3.644v3.83h7.696v-7.854L70.369,35.078z M78.818,23.451
			v-9.114h-5.381v40.328h-3.017V39.053h-3.771v3.9h-0.046v0.054h-3.82v11.814H58.86v3.733h7.789v3.91h3.69v3.678h-3.69v14.419
			h-0.046v0.001l-3.743-0.001V66.37h2.3v-3.919h-6.3v-3.897h-8.003v-3.733h-15.56v3.733h7.871l-0.021,3.8h11.696v4.028h-7.666v3.949
			h7.791v19.411h3.949v-6.107h3.881v6.205h3.85v3.959h3.823v-0.058l0.054,0v-3.867h-0.054v-0.057h-3.823V86.04h3.823v3.776h0.054
			v0.057h2.912v3.888l-2.912-0.021v0.058h-0.054v3.927h-3.823v3.768h6.788v9.171h5.381v-9.171h22.614V23.451H78.818z M73.437,81.849
			h-2.853V70.317h2.853V81.849z M97.333,97.393H78.818V27.55h18.515V97.393z"/>
	</g>
</g>
<rect x="72.983" y="13.778" fill="#CE2B2D" width="6.125" height="97.5"/>
</svg>
